# xmcd CD database file
#
# Track frame offsets:
#	150
#	17160
#	35370
#	53604
#	71112
#	89955
#	111477
#	131350
#	152122
#	170538
#	189569
#	209333
#	228292
#
# Disc length: 3270 seconds
#
# Revision: 0
# Processed by: cddbd v1.5PL3 Copyright (c) Steve Scherf et al.
# Submitted via: CDex 1.50
#
DISCID=b70cc40d
DTITLE=Orishas - A Lo Cubano
DYEAR=1900
DGENRE=Salsa
TTITLE0=Represent
TTITLE1=Atrevido
TTITLE2=A lo cubano
TTITLE3=Barrio
TTITLE4=1.9.9.9
TTITLE5=Atencion
TTITLE6=Mistica
TTITLE7=Canto para elewa y chanco
TTITLE8=Madre
TTITLE9=Orishas llego
TTITLE10=537 Cuba
TTITLE11=Connexion
TTITLE12=Triunfo
EXTD=
EXTT0=
EXTT1=
EXTT2=
EXTT3=
EXTT4=
EXTT5=
EXTT6=
EXTT7=
EXTT8=
EXTT9=
EXTT10=
EXTT11=
EXTT12=
PLAYORDER=
